<svg width="164" height="33" viewBox="0 0 164 33" fill="none" xmlns="http://www.w3.org/2000/svg">
<path d="M19.1986 32.8965C18.7741 32.7156 18.4633 32.4442 18.4007 31.957C18.3682 31.7089 18.4146 31.4769 18.5375 31.2635C19.7089 29.2269 20.8803 27.1903 22.0587 25.1583C22.3741 24.6156 23.0306 24.4532 23.5525 24.764C24.079 25.0772 24.2368 25.7243 23.912 26.288C22.9076 28.0369 21.8986 29.7813 20.8919 31.5279C20.7852 31.7112 20.6716 31.8921 20.5764 32.0823C20.3955 32.4511 20.1404 32.7387 19.753 32.8965H19.1963H19.1986Z" fill="#A9A9A9"/>
<path d="M24.8349 5.17285C26.0016 5.17285 27.1684 5.17285 28.3351 5.17285C28.9939 5.17285 29.4833 5.62285 29.488 6.22826C29.4949 6.85223 29.0101 7.33007 28.3444 7.33007C26.0016 7.33471 23.6589 7.33239 21.3138 7.33007C20.6457 7.33007 20.1516 6.85455 20.1563 6.23754C20.1632 5.62053 20.655 5.17285 21.33 5.17285C22.4967 5.17285 23.6635 5.17285 24.8303 5.17285H24.8349Z" fill="#A9A9A9"/>
<path d="M5.17969 8.25516C5.17969 7.07913 5.17969 5.90542 5.17969 4.72939C5.17969 4.08222 5.60185 3.61599 6.21422 3.58351C6.7802 3.55336 7.2534 3.98712 7.32763 4.59949C7.33458 4.65516 7.34154 4.71083 7.34154 4.76418C7.34154 7.07681 7.34154 9.38944 7.34154 11.7021C7.34154 11.9642 7.29051 12.2147 7.1351 12.4374C6.87067 12.8155 6.39979 12.9894 5.96139 12.8619C5.50907 12.7296 5.18433 12.326 5.18201 11.8598C5.17737 10.6583 5.18201 9.45439 5.18201 8.25284L5.17969 8.25516Z" fill="#A9A9A9"/>
<path d="M8.26309 25.7285C9.43216 25.7285 10.5989 25.7285 11.768 25.7285C12.4267 25.7285 12.9092 26.1785 12.9162 26.7909C12.9231 27.4172 12.4407 27.8834 11.768 27.8857C9.42288 27.8881 7.07546 27.8904 4.73036 27.8857C4.08319 27.8857 3.59144 27.4056 3.59376 26.8048C3.59608 26.1901 4.08087 25.7308 4.73268 25.7308C5.91103 25.7308 7.08706 25.7308 8.26541 25.7308L8.26309 25.7285Z" fill="#A9A9A9"/>
<path d="M27.7679 14.3828C28.1692 14.3875 28.4916 14.5498 28.6934 14.8954C29.8764 16.9436 31.0571 18.9918 32.2308 21.0447C32.5347 21.5782 32.3538 22.223 31.8458 22.5176C31.3169 22.8261 30.6674 22.6684 30.352 22.1256C29.1643 20.0797 27.9813 18.0315 26.8146 15.9764C26.4017 15.248 26.9352 14.3851 27.7679 14.3828Z" fill="#A9A9A9"/>
<path d="M31.7901 14.5715C31.6046 14.5854 31.4121 14.4996 31.2242 14.3929C29.227 13.2447 27.2275 12.0988 25.2327 10.946C24.6481 10.6096 24.4626 9.96943 24.7757 9.42897C25.0819 8.90242 25.7337 8.73541 26.2997 9.05783C28.3154 10.213 30.3265 11.3728 32.3399 12.5303C32.7458 12.7645 32.9685 13.1148 32.9291 13.581C32.8896 14.0449 32.6298 14.365 32.1845 14.5251C32.0685 14.5669 31.9479 14.5669 31.7901 14.5715Z" fill="#A9A9A9"/>
<path d="M0.0546875 19.4403C0.0616463 18.6076 0.94077 18.1135 1.70159 18.5311C2.40675 18.9184 3.10031 19.3313 3.79618 19.7326C5.12763 20.4981 6.45907 21.2635 7.78819 22.0336C8.2034 22.2749 8.41912 22.7086 8.33794 23.1563C8.25675 23.6063 7.98768 23.9032 7.54464 24.0262C7.25469 24.1073 6.97634 24.0679 6.71422 23.9171C4.66835 22.7411 2.62247 21.5651 0.578914 20.3867C0.219378 20.1803 0.0570071 19.8509 0.0546875 19.4403Z" fill="#A9A9A9"/>
<path d="M14.5862 1.16188C14.5978 1.37296 14.5236 1.56085 14.4192 1.73946C13.2687 3.73431 12.1205 5.72915 10.97 7.724C10.629 8.31317 9.9981 8.51497 9.45763 8.21343C8.90557 7.90724 8.7432 7.24384 9.08418 6.64771C10.2347 4.64358 11.3899 2.63946 12.545 0.635336C12.8164 0.16446 13.3081 -0.0489425 13.7929 0.0855936C14.2824 0.222449 14.5932 0.639975 14.5886 1.15956L14.5862 1.16188Z" fill="#A9A9A9"/>
<path d="M22.7756 1.60772C22.7756 2.02293 22.5946 2.34071 22.2374 2.54483C20.2008 3.71854 18.1642 4.89226 16.123 6.05901C15.5802 6.36983 14.933 6.18658 14.6245 5.66468C14.3207 5.15205 14.4969 4.49097 15.0421 4.17782C17.0694 3.00643 19.099 1.83968 21.1333 0.679884C21.9011 0.243802 22.7732 0.744833 22.7709 1.60772H22.7756Z" fill="#A9A9A9"/>
<path d="M11.4632 32.339C10.9784 32.339 10.5516 32.0212 10.4264 31.5689C10.2849 31.0679 10.4936 30.5715 10.9715 30.2954C12.0779 29.6575 13.1867 29.0243 14.2931 28.3864C15.207 27.8599 16.1163 27.3264 17.0372 26.8114C17.74 26.4194 18.538 26.8045 18.6748 27.5815C18.7514 28.0176 18.5287 28.449 18.0833 28.7088C17.2181 29.2099 16.3506 29.7063 15.4854 30.205C14.3627 30.8498 13.2377 31.4947 12.115 32.1418C11.9109 32.2601 11.7021 32.3506 11.4609 32.339H11.4632Z" fill="#A9A9A9"/>
<path d="M1.69176 10.3848C2.15568 10.3848 2.4665 10.619 2.6915 11.0111C3.63326 12.6556 4.58197 14.2956 5.52836 15.9379C5.73712 16.2974 5.9482 16.6569 6.15001 17.0211C6.45619 17.5778 6.29382 18.2157 5.77423 18.5196C5.23609 18.835 4.5982 18.6634 4.26882 18.0951C3.10207 16.0794 1.93532 14.0613 0.780163 12.0386C0.341761 11.2708 0.835833 10.3894 1.68944 10.3848H1.69176Z" fill="#A9A9A9"/>
<path d="M27.8895 24.8123C27.8895 25.9861 27.8895 27.1621 27.8895 28.3358C27.8895 28.9922 27.4372 29.4631 26.8132 29.4585C26.2032 29.4538 25.7578 28.9853 25.7578 28.3451C25.7578 25.9861 25.7578 23.6294 25.7578 21.2703C25.7578 20.6232 26.2264 20.1337 26.8341 20.1407C27.4349 20.1477 27.8895 20.6278 27.8895 21.2611C27.8895 22.444 27.8895 23.6294 27.8895 24.8123Z" fill="#A9A9A9"/>
<path d="M54.6916 16.6655C54.6916 17.3955 54.576 18.0598 54.3448 18.6583C54.1135 19.2568 53.7871 19.7691 53.3654 20.1953C52.9437 20.6215 52.4359 20.9525 51.842 21.1883C51.2525 21.4195 50.5996 21.5352 49.8832 21.5352H46.2446V11.7891H49.8832C50.5996 11.7891 51.2525 11.907 51.842 12.1428C52.4359 12.374 52.9437 12.705 53.3654 13.1357C53.7871 13.5619 54.1135 14.0743 54.3448 14.6728C54.576 15.2713 54.6916 15.9355 54.6916 16.6655ZM53.3382 16.6655C53.3382 16.067 53.2566 15.532 53.0934 15.0605C52.9301 14.5889 52.6989 14.1899 52.3997 13.8635C52.1004 13.537 51.7377 13.2876 51.3115 13.1153C50.8853 12.943 50.4092 12.8569 49.8832 12.8569H47.564V20.4674H49.8832C50.4092 20.4674 50.8853 20.3812 51.3115 20.2089C51.7377 20.0366 52.1004 19.7895 52.3997 19.4676C52.6989 19.1412 52.9301 18.7421 53.0934 18.2706C53.2566 17.7991 53.3382 17.264 53.3382 16.6655ZM66.9574 16.6655C66.9574 17.3955 66.8418 18.0666 66.6106 18.6787C66.3793 19.2862 66.0529 19.8099 65.6312 20.2497C65.2095 20.6895 64.7017 21.0319 64.1077 21.2767C63.5183 21.517 62.8654 21.6372 62.149 21.6372C61.4326 21.6372 60.7797 21.517 60.1903 21.2767C59.6008 21.0319 59.0953 20.6895 58.6736 20.2497C58.2519 19.8099 57.9255 19.2862 57.6942 18.6787C57.463 18.0666 57.3474 17.3955 57.3474 16.6655C57.3474 15.9355 57.463 15.2668 57.6942 14.6592C57.9255 14.0471 58.2519 13.5211 58.6736 13.0813C59.0953 12.637 59.6008 12.2924 60.1903 12.0475C60.7797 11.8027 61.4326 11.6803 62.149 11.6803C62.8654 11.6803 63.5183 11.8027 64.1077 12.0475C64.7017 12.2924 65.2095 12.637 65.6312 13.0813C66.0529 13.5211 66.3793 14.0471 66.6106 14.6592C66.8418 15.2668 66.9574 15.9355 66.9574 16.6655ZM65.604 16.6655C65.604 16.067 65.5224 15.5297 65.3591 15.0537C65.1959 14.5776 64.9647 14.1763 64.6654 13.8499C64.3662 13.5189 64.0034 13.265 63.5772 13.0881C63.151 12.9113 62.675 12.8229 62.149 12.8229C61.6276 12.8229 61.1538 12.9113 60.7276 13.0881C60.3014 13.265 59.9364 13.5189 59.6326 13.8499C59.3333 14.1763 59.1021 14.5776 58.9389 15.0537C58.7756 15.5297 58.694 16.067 58.694 16.6655C58.694 17.264 58.7756 17.8013 58.9389 18.2774C59.1021 18.749 59.3333 19.1502 59.6326 19.4812C59.9364 19.8077 60.3014 20.0593 60.7276 20.2361C61.1538 20.4084 61.6276 20.4946 62.149 20.4946C62.675 20.4946 63.151 20.4084 63.5772 20.2361C64.0034 20.0593 64.3662 19.8077 64.6654 19.4812C64.9647 19.1502 65.1959 18.749 65.3591 18.2774C65.5224 17.8013 65.604 17.264 65.604 16.6655ZM80.3459 11.7891V21.5352H79.1897V14.3735C79.1897 14.2783 79.192 14.1763 79.1965 14.0675C79.2056 13.9587 79.2147 13.8476 79.2237 13.7342L75.8776 19.8281C75.7733 20.0321 75.6146 20.1341 75.4015 20.1341H75.211C74.9979 20.1341 74.8392 20.0321 74.735 19.8281L71.3208 13.707C71.348 13.9473 71.3616 14.1695 71.3616 14.3735V21.5352H70.2054V11.7891H71.178C71.2958 11.7891 71.3865 11.8004 71.45 11.8231C71.5135 11.8458 71.5747 11.9093 71.6336 12.0135L75.0002 18.0122C75.0546 18.121 75.1068 18.2343 75.1566 18.3522C75.211 18.4701 75.2609 18.5903 75.3063 18.7127C75.3516 18.5903 75.3992 18.4701 75.4491 18.3522C75.499 18.2298 75.5534 18.1142 75.6123 18.0054L78.9177 12.0135C78.9721 11.9093 79.031 11.8458 79.0945 11.8231C79.1625 11.8004 79.2555 11.7891 79.3733 11.7891H80.3459ZM85.5177 21.5352H84.1982V11.7891H85.5177V21.5352ZM97.267 11.7891V21.5352H96.6073C96.503 21.5352 96.4146 21.517 96.342 21.4807C96.274 21.4445 96.206 21.3833 96.138 21.2971L90.4998 13.9519C90.5089 14.0652 90.5157 14.1763 90.5202 14.2851C90.5248 14.3939 90.527 14.496 90.527 14.5912V21.5352H89.3708V11.7891H90.0509C90.1099 11.7891 90.1598 11.7936 90.2006 11.8027C90.2414 11.8072 90.2776 11.8186 90.3094 11.8367C90.3411 11.8503 90.3729 11.873 90.4046 11.9047C90.4363 11.9319 90.4703 11.9682 90.5066 12.0135L96.1448 19.352C96.1357 19.2341 96.1266 19.1207 96.1176 19.0119C96.113 18.8986 96.1108 18.792 96.1108 18.6923V11.7891H97.267ZM110.123 16.6655C110.123 17.3955 110.008 18.0666 109.777 18.6787C109.545 19.2862 109.219 19.8099 108.797 20.2497C108.376 20.6895 107.868 21.0319 107.274 21.2767C106.684 21.517 106.031 21.6372 105.315 21.6372C104.599 21.6372 103.946 21.517 103.356 21.2767C102.767 21.0319 102.261 20.6895 101.84 20.2497C101.418 19.8099 101.092 19.2862 100.86 18.6787C100.629 18.0666 100.513 17.3955 100.513 16.6655C100.513 15.9355 100.629 15.2668 100.86 14.6592C101.092 14.0471 101.418 13.5211 101.84 13.0813C102.261 12.637 102.767 12.2924 103.356 12.0475C103.946 11.8027 104.599 11.6803 105.315 11.6803C106.031 11.6803 106.684 11.8027 107.274 12.0475C107.868 12.2924 108.376 12.637 108.797 13.0813C109.219 13.5211 109.545 14.0471 109.777 14.6592C110.008 15.2668 110.123 15.9355 110.123 16.6655ZM108.77 16.6655C108.77 16.067 108.688 15.5297 108.525 15.0537C108.362 14.5776 108.131 14.1763 107.831 13.8499C107.532 13.5189 107.17 13.265 106.743 13.0881C106.317 12.9113 105.841 12.8229 105.315 12.8229C104.794 12.8229 104.32 12.9113 103.894 13.0881C103.467 13.265 103.102 13.5189 102.799 13.8499C102.499 14.1763 102.268 14.5776 102.105 15.0537C101.942 15.5297 101.86 16.067 101.86 16.6655C101.86 17.264 101.942 17.8013 102.105 18.2774C102.268 18.749 102.499 19.1502 102.799 19.4812C103.102 19.8077 103.467 20.0593 103.894 20.2361C104.32 20.4084 104.794 20.4946 105.315 20.4946C105.841 20.4946 106.317 20.4084 106.743 20.2361C107.17 20.0593 107.532 19.8077 107.831 19.4812C108.131 19.1502 108.362 18.749 108.525 18.2774C108.688 17.8013 108.77 17.264 108.77 16.6655Z" fill="#A9A9A9"/>
</svg>
